<svg width="512" height="512" viewBox="0 0 512 512" fill="none" xmlns="http://www.w3.org/2000/svg">
  <rect x="40" y="40" width="432" height="432" rx="136" fill="#F5F5F5"/>
  <rect x="74" y="74" width="364" height="364" rx="108" fill="#0A0A0A"/>
  <path d="M170 166H258C304.392 166 342 203.608 342 250C342 296.392 304.392 334 258 334H170V166Z" stroke="#F5F5F5" stroke-width="28" stroke-linejoin="round"/>
  <path d="M206 206H254C278.301 206 298 225.699 298 250C298 274.301 278.301 294 254 294H206V206Z" fill="#F5F5F5"/>
  <path d="M210 146V366" stroke="#F5F5F5" stroke-width="18" stroke-linecap="round" opacity="0.95"/>
  <path d="M318 154L362 198" stroke="#F5F5F5" stroke-width="18" stroke-linecap="round" opacity="0.7"/>
  <path d="M318 358L362 314" stroke="#F5F5F5" stroke-width="18" stroke-linecap="round" opacity="0.7"/>
  <path d="M332 256H382" stroke="#F5F5F5" stroke-width="18" stroke-linecap="round" opacity="0.7"/>
  <circle cx="256" cy="256" r="222" stroke="#F5F5F5" stroke-opacity="0.12" stroke-width="8"/>
</svg>
